<svg xmlns="http://www.w3.org/2000/svg" width="16px" height="16px" viewBox="0 0 12 12" fill="white"><path d="M10.6644.8443.4477 5.0966s-.483.1756-.4456.4994c.0384.3244.4325.4728.4325.4728l2.5708.9177s.776 2.6995.9286 3.2132c.1528.5122.2753.5243.2753.5243.1422.0655.2715-.0389.2715-.0389l1.6609-1.606 2.5886 2.1055c.7001.3239.955-.3511.955-.3511l1.8189-9.7322c0-.6482-.8398-.257-.8398-.257m-1.8087 9.2065-2.7694-2.252-.8593.8308.189-1.7674 3.6913-3.4986L4.0755 6.351l-2.232-.7967 8.5156-3.5444z"></path></svg>